<mxfile host="app.diagrams.net" modified="2021-03-25T21:56:02.870Z" agent="5.0 (Windows NT 10.0; Win64; x64) AppleWebKit/537.36 (KHTML, like Gecko) Chrome/89.0.4389.90 Safari/537.36" etag="qPxXBRMPTVDCq5AEELg2" version="14.5.1" type="github" pages="2">
  <diagram name="INDEX" id="c9db0220-8083-56f3-ca83-edcdcd058819">
    <mxGraphModel dx="1422" dy="766" grid="1" gridSize="10" guides="1" tooltips="1" connect="1" arrows="1" fold="1" page="1" pageScale="1.5" pageWidth="826" pageHeight="1169" background="#ffffff" math="0" shadow="0">
      <root>
        <mxCell id="0" style=";html=1;" />
        <mxCell id="1" style=";html=1;" parent="0" />
        <mxCell id="bcL_DF850uP_6J2z_odr-8" value="TÍTULO" style="rounded=0;whiteSpace=wrap;html=1;" vertex="1" parent="1">
          <mxGeometry x="80" y="40" width="1080" height="60" as="geometry" />
        </mxCell>
        <mxCell id="bcL_DF850uP_6J2z_odr-9" value="HABITACIONES" style="rounded=1;whiteSpace=wrap;html=1;" vertex="1" parent="1">
          <mxGeometry x="360" y="120" width="120" height="60" as="geometry" />
        </mxCell>
        <mxCell id="bcL_DF850uP_6J2z_odr-10" value="EVENTOS" style="rounded=1;whiteSpace=wrap;html=1;" vertex="1" parent="1">
          <mxGeometry x="560" y="120" width="120" height="60" as="geometry" />
        </mxCell>
        <mxCell id="bcL_DF850uP_6J2z_odr-11" value="QUIENES SOMOS" style="rounded=1;whiteSpace=wrap;html=1;" vertex="1" parent="1">
          <mxGeometry x="160" y="120" width="120" height="60" as="geometry" />
        </mxCell>
        <mxCell id="bcL_DF850uP_6J2z_odr-12" value="UBICACIÓN" style="rounded=1;whiteSpace=wrap;html=1;" vertex="1" parent="1">
          <mxGeometry x="760" y="120" width="120" height="60" as="geometry" />
        </mxCell>
        <mxCell id="bcL_DF850uP_6J2z_odr-13" value="PROMOCIONES" style="rounded=1;whiteSpace=wrap;html=1;" vertex="1" parent="1">
          <mxGeometry x="960" y="120" width="120" height="60" as="geometry" />
        </mxCell>
        <mxCell id="a_5siFib3OdO7E0eQlxP-4" value="Card Image" style="html=1;shadow=0;dashed=0;shape=mxgraph.bootstrap.rrect;rSize=5;strokeColor=#2D3338;html=1;whiteSpace=wrap;fillColor=#868E96;fontColor=#ffffff;verticalAlign=middle;align=center;spacing=20;fontSize=60;" vertex="1" parent="1">
          <mxGeometry x="160" y="240" width="920" height="800" as="geometry" />
        </mxCell>
        <mxCell id="a_5siFib3OdO7E0eQlxP-5" value="&lt;b&gt;&lt;font style=&quot;font-size: 20px&quot;&gt;Card title&lt;/font&gt;&lt;/b&gt;&lt;br&gt;&lt;br&gt;This is a wider card with supporting text below as a natural lead-in to additional content. This content is a little bit longer.&lt;br&gt;&lt;br&gt;Last updated 3 mins ago" style="fillColor=none;strokeColor=none;fontColor=#ffffff;html=1;verticalAlign=top;align=left;spacing=20;fontSize=14;" vertex="1" parent="a_5siFib3OdO7E0eQlxP-4">
          <mxGeometry width="800" height="120" relative="1" as="geometry" />
        </mxCell>
        <mxCell id="a_5siFib3OdO7E0eQlxP-6" value="FACEBOOK" style="text;html=1;strokeColor=none;fillColor=none;align=center;verticalAlign=middle;whiteSpace=wrap;rounded=0;" vertex="1" parent="1">
          <mxGeometry x="160" y="1080" width="200" height="40" as="geometry" />
        </mxCell>
        <mxCell id="a_5siFib3OdO7E0eQlxP-7" value="INSTAGRAM" style="text;html=1;strokeColor=none;fillColor=none;align=center;verticalAlign=middle;whiteSpace=wrap;rounded=0;" vertex="1" parent="1">
          <mxGeometry x="400" y="1080" width="200" height="40" as="geometry" />
        </mxCell>
        <mxCell id="a_5siFib3OdO7E0eQlxP-8" value="CORREO" style="text;html=1;strokeColor=none;fillColor=none;align=center;verticalAlign=middle;whiteSpace=wrap;rounded=0;" vertex="1" parent="1">
          <mxGeometry x="640" y="1080" width="200" height="40" as="geometry" />
        </mxCell>
        <mxCell id="a_5siFib3OdO7E0eQlxP-9" value="TELÉFONO" style="text;html=1;strokeColor=none;fillColor=none;align=center;verticalAlign=middle;whiteSpace=wrap;rounded=0;" vertex="1" parent="1">
          <mxGeometry x="880" y="1080" width="200" height="40" as="geometry" />
        </mxCell>
      </root>
    </mxGraphModel>
  </diagram>
  <diagram id="86VtyGSfqmqkkwFd45AS" name="HABITACIONES">
    <mxGraphModel dx="1422" dy="766" grid="1" gridSize="10" guides="1" tooltips="1" connect="1" arrows="1" fold="1" page="1" pageScale="1" pageWidth="827" pageHeight="1169" math="0" shadow="0">
      <root>
        <mxCell id="eh7vCnbFKBlif_gC9rpE-0" />
        <mxCell id="eh7vCnbFKBlif_gC9rpE-1" parent="eh7vCnbFKBlif_gC9rpE-0" />
      </root>
    </mxGraphModel>
  </diagram>
</mxfile>
